0
SECTION
2
HEADER
9
$INSUNITS
70
4
9
$ACADVER
1
AC1014
9
$HANDSEED
5
FFFF
0
ENDSEC
0
SECTION
2
TABLES
0
TABLE
2
VPORT
5
8
100
AcDbSymbolTable
0
ENDTAB
0
TABLE
2
LTYPE
5
5
100
AcDbSymbolTable
0
LTYPE
5
14
100
AcDbSymbolTableRecord
100
AcDbLinetypeTableRecord
2
BYBLOCK
70
0
0
LTYPE
5
15
100
AcDbSymbolTableRecord
100
AcDbLinetypeTableRecord
2
BYLAYER
70
0
0
ENDTAB
0
TABLE
2
LAYER
5
2
100
AcDbSymbolTable
70
2
0
LAYER
5
50
100
AcDbSymbolTableRecord
100
AcDbLayerTableRecord
2
0
70
0
6
CONTINUOUS
0
ENDTAB
0
TABLE
2
STYLE
5
3
100
AcDbSymbolTable
70
1
0
STYLE
5
11
100
AcDbSymbolTableRecord
100
AcDbTextStyleTableRecord
2
STANDARD
70
0
0
ENDTAB
0
TABLE
2
VIEW
5
6
100
AcDbSymbolTable
70
0
0
ENDTAB
0
TABLE
2
UCS
5
7
100
AcDbSymbolTable
70
0
0
ENDTAB
0
TABLE
2
APPID
5
9
100
AcDbSymbolTable
70
2
0
APPID
5
12
100
AcDbSymbolTableRecord
100
AcDbRegAppTableRecord
2
ACAD
70
0
0
ENDTAB
0
TABLE
2
DIMSTYLE
5
A
100
AcDbSymbolTable
70
1
0
ENDTAB
0
TABLE
2
BLOCK_RECORD
5
1
100
AcDbSymbolTable
70
1
0
BLOCK_RECORD
5
1F
100
AcDbSymbolTableRecord
100
AcDbBlockTableRecord
2
*MODEL_SPACE
0
BLOCK_RECORD
5
1B
100
AcDbSymbolTableRecord
100
AcDbBlockTableRecord
2
*PAPER_SPACE
0
ENDTAB
0
ENDSEC
0
SECTION
2
BLOCKS
0
BLOCK
5
20
100
AcDbEntity
100
AcDbBlockBegin
2
*MODEL_SPACE
0
ENDBLK
5
21
100
AcDbEntity
100
AcDbBlockEnd
0
BLOCK
5
1C
100
AcDbEntity
100
AcDbBlockBegin
2
*PAPER_SPACE
0
ENDBLK
5
1D
100
AcDbEntity
100
AcDbBlockEnd
0
ENDSEC
0
SECTION
2
ENTITIES
0
LWPOLYLINE
5
100
100
AcDbEntity
8
0
100
AcDbPolyline
90
32
70
1
43
0.0
10
-6.2500002384185827
20
49.884268311889066
42
-0.41421356237309309
10
-7.7500002384185791
20
51.384268311889073
10
-7.7500002384185729
20
64.784000149011618
42
0.41421356237309503
10
-8.3500002384185734
20
65.384000149011598
10
-199.15000023841861
20
65.384000149011612
42
0.41421356237309503
10
-199.75000023841861
20
64.784000149011618
10
-199.75000023841861
20
9.9840001490116101
42
0.41421356237309503
10
-199.15000023841861
20
9.3840001490116105
10
-8.3500002384185823
20
9.3840001490116123
42
0.41421356237309614
10
-7.7500002384185862
20
9.9840001490116137
10
-7.7500002384185729
20
23.384268311889073
42
-0.4142135623730942
10
-6.2500002384185827
20
24.884268311889066
10
-1.2220224100064763
20
24.88426831188907
42
-0.41421356237309592
10
0.27797758999352773
20
23.384268311889073
10
0.27797758999352468
20
14.126734941513961
42
-0.19891236737965776
10
-0.60070206644683211
20
12.005414597954317
10
-11.843342753566084
20
0.76277391083503387
42
-0.19891236737965765
10
-13.964663097125722
20
-0.11590574560532474
10
-193.47938172288721
20
-0.11590574560532835
42
-0.19891236737965776
10
-195.60070206644684
20
0.76277391083502621
10
-206.84334275356608
20
12.005414597954287
42
-0.19891236737966517
10
-207.7220224100065
20
14.126734941513925
10
-207.7220224100065
20
60.641453567275434
42
-0.19891236737966722
10
-206.84334275356611
20
62.762773910835065
10
-195.60070206644684
20
74.005414597954328
42
-0.1989123673796617
10
-193.47938172288721
20
74.884094254394682
10
-13.964663097125772
20
74.884094254394682
42
-0.1989123673796564
10
-11.843342753566121
20
74.005414597954328
10
-0.60070206644683466
20
62.76277391083503
42
-0.19891236737965903
10
0.27797758999352218
20
60.641453567275377
10
0.27797758999353817
20
51.38426831188908
42
-0.41421356237309193
10
-1.2220224100064758
20
49.884268311889066
0
CIRCLE
5
101
100
AcDbEntity
8
0
100
AcDbCircle
10
-4.2220000745057753
20
56.384000000000007
30
0
40
1.5500000000000003
210
0
220
0
230
1
0
CIRCLE
5
102
100
AcDbEntity
8
0
100
AcDbCircle
10
-4.2220000745057753
20
18.383999999999993
30
0
40
1.5500000000000003
210
0
220
0
230
1
0
CIRCLE
5
103
100
AcDbEntity
8
0
100
AcDbCircle
10
-203.22200007450579
20
18.384
30
0
40
1.5500000000000114
210
0
220
0
230
1
0
CIRCLE
5
104
100
AcDbEntity
8
0
100
AcDbCircle
10
-203.22200007450579
20
56.384000000000007
30
0
40
1.5500000000000114
210
0
220
0
230
1
0
ENDSEC
0
SECTION
2
OBJECTS
0
DICTIONARY
5
C
100
AcDbDictionary
3
ACAD_GROUP
350
D
3
ACAD_MLINESTYLE
350
17
0
DICTIONARY
5
D
100
AcDbDictionary
0
DICTIONARY
5
1A
330
C
100
AcDbDictionary
0
DICTIONARY
5
17
100
AcDbDictionary
0
ENDSEC
0
EOF
